<svg xmlns="http://www.w3.org/2000/svg" width="40" height="40" viewBox="272 1295.95 40 40"><g data-name="CompositeLayer"><path d="M272 1315.9a20 20 0 1 1 0 .1z" fill="#f6ffed" fill-rule="evenodd" data-name="Ellipse 2"/><g data-name="timeline"><g data-name="Group 15"><path d="M292.514 1308h-1.028v7.705h-1.54v1.027h1.54v7.705h1.028v-3.082h1.54v-1.027h-1.54v-8.219h1.54v-1.027h-1.54V1308Z" fill="#52c41a" fill-rule="evenodd" data-name="Path 618"/><path d="M296 1309.219h3a1 1 0 0 1 1 1v3a1 1 0 0 1-1 1h-3a1 1 0 0 1-1-1v-3a1 1 0 0 1 1-1z" fill="#52c41a" fill-rule="evenodd" data-name="Rectangle 370"/><path d="M296 1318.219h3a1 1 0 0 1 1 1v3a1 1 0 0 1-1 1h-3a1 1 0 0 1-1-1v-3a1 1 0 0 1 1-1z" fill="#52c41a" fill-rule="evenodd" data-name="Rectangle 371"/><path d="M285 1313.219h3a1 1 0 0 1 1 1v4a1 1 0 0 1-1 1h-3a1 1 0 0 1-1-1v-4a1 1 0 0 1 1-1z" fill="#52c41a" fill-rule="evenodd" data-name="Rectangle 372"/></g></g></g></svg>