<svg xmlns="http://www.w3.org/2000/svg" width="40" height="40" viewBox="276 1295.95 40 40"><g data-name="CompositeLayer"><path d="M276 1315.9a20 20 0 1 1 0 .1z" fill="#fff1f0" fill-rule="evenodd" data-name="Ellipse 3"/><g data-name="newsletter-dev"><g data-name="Group 19"><path d="M290.985 1315.439v-6.968h9.052v6.968l2.906-1.615-1.9-1.115v-4.74a.502.502 0 0 0-.503-.504h-10.058a.502.502 0 0 0-.502.503v4.739l-1.917 1.108 2.922 1.624Z" fill="#f5222d" fill-rule="evenodd" data-name="Path 628"/><path d="M295.755 1318.968a.5.5 0 0 1-.488 0l-7.802-4.334v8.42c0 .278.225.503.503.503h15.086a.502.502 0 0 0 .503-.503v-8.42l-7.802 4.334Z" fill="#f5222d" fill-rule="evenodd" data-name="Path 629"/><path d="m294.002 1314.714-1.864-1.865a.502.502 0 0 1 0-.71l1.864-1.865.712.711-1.51 1.509 1.51 1.508-.712.712Z" fill="#f5222d" fill-rule="evenodd" data-name="Path 630"/><path d="m297.02 1314.714-.711-.712 1.508-1.508-1.508-1.509.71-.71 1.865 1.863a.502.502 0 0 1 0 .711l-1.864 1.865Z" fill="#f5222d" fill-rule="evenodd" data-name="Path 631"/></g></g></g></svg>