<svg xmlns="http://www.w3.org/2000/svg" width="40" height="40" viewBox="272 1295.95 40 40"><g data-name="CompositeLayer"><path d="M272 1315.9a20 20 0 1 1 0 .1z" fill="#e6f7ff" fill-rule="evenodd" data-name="Ellipse 4"/><g data-name="chart-bar-33"><g data-name="Group 18"><path d="M293.624 1316.541h-3.248a.541.541 0 0 0-.541.542v7.036c0 .299.242.541.541.541h3.248a.541.541 0 0 0 .541-.541v-7.036a.541.541 0 0 0-.541-.542Z" fill="#1890ff" fill-rule="evenodd" data-name="Path 624"/><path d="M287.129 1319.789h-3.248a.541.541 0 0 0-.541.541v3.789c0 .299.242.541.541.541h3.248a.541.541 0 0 0 .54-.541v-3.789a.541.541 0 0 0-.54-.541Z" fill="#1890ff" fill-rule="evenodd" data-name="Path 625"/><path d="M300.119 1313.294h-3.248a.541.541 0 0 0-.54.541v10.284c0 .299.242.541.54.541h3.248a.541.541 0 0 0 .541-.541v-10.284a.541.541 0 0 0-.541-.541Z" fill="#1890ff" fill-rule="evenodd" data-name="Path 626"/><path d="M292 1313.835a.54.54 0 0 0 .383-.159l4.488-4.488v2.482h1.083v-3.789a.541.541 0 0 0-.541-.541h-3.79v1.082h2.483l-4.106 4.106-2.324-2.323a.54.54 0 0 0-.765 0l-2.706 2.706.765.765 2.324-2.323 2.323 2.323a.54.54 0 0 0 .383.159Z" fill="#1890ff" fill-rule="evenodd" data-name="Path 627"/></g></g></g></svg>