<svg xmlns="http://www.w3.org/2000/svg" width="25.776" height="17.184" viewBox="742.224 964 25.776 17.184"><path d="M767.844 971.939c-2.426-4.735-7.23-7.939-12.732-7.939-5.5 0-10.307 3.206-12.732 7.939-.208.41-.208.896 0 1.306 2.427 4.735 7.231 7.939 12.732 7.939 5.501 0 10.307-3.206 12.732-7.94.208-.41.208-.895 0-1.305Zm-12.732 7.097a6.444 6.444 0 1 1 6.444-6.444 6.44 6.44 0 0 1-6.444 6.444Zm0-10.74a4.265 4.265 0 0 0-1.132.17 2.141 2.141 0 0 1-2.994 2.993 4.286 4.286 0 1 0 4.126-3.163Z" fill="#722ed1" fill-rule="evenodd" data-name="Icon awesome-eye"/></svg>