<svg xmlns="http://www.w3.org/2000/svg" width="23.226" height="24" viewBox="760 960 23.226 24"><g data-name="compass"><g data-name="Group 28"><path d="M772.387 962.4V960h-1.548v2.4a3.878 3.878 0 0 0-3.097 3.794 3.875 3.875 0 0 0 3.87 3.87 3.875 3.875 0 0 0 3.872-3.87 3.878 3.878 0 0 0-3.097-3.793Z" fill="#722ed1" fill-rule="evenodd" data-name="Path 681"/><path d="M779.797 977.032h1.88v-1.548h-2.656l-3.047-6.087a5.438 5.438 0 0 1-2.529 1.89l2.098 4.197h-3.156v-1.549h-1.548v1.549h-3.157l2.098-4.197a5.434 5.434 0 0 1-2.528-1.89l-3.047 6.087h-2.657v1.548h1.88L760 983.881a3.98 3.98 0 0 0 4.524-2.081l2.384-4.768h3.93v1.549h1.55v-1.549h3.93l2.383 4.768a3.98 3.98 0 0 0 4.525 2.08l-3.43-6.848Z" fill="#722ed1" fill-rule="evenodd" data-name="Path 682"/></g></g></svg>