<svg xmlns="http://www.w3.org/2000/svg" width="24" height="24.012" viewBox="760 960 24 24.012"><g data-name="electronic-circuit"><g data-name="Group 11"><path d="M768 967.598v-1.77a3 3 0 1 0-2 0v2.184a1 1 0 0 0 .293.707l2.707 2.707v11.586a1 1 0 0 0 2 0v-12a1 1 0 0 0-.293-.706L768 967.598Z" fill="#722ed1" fill-rule="evenodd" data-name="Path 607"/><path d="M764 976.598v-1.77a3 3 0 1 0-2 0v2.184a1 1 0 0 0 .293.707l2.707 2.707v2.586a1 1 0 0 0 2 0v-3a1 1 0 0 0-.293-.706L764 976.598Z" fill="#722ed1" fill-rule="evenodd" data-name="Path 608"/><path d="M778 968.012v-2.184a3 3 0 1 0-2 0v1.77l-2.707 2.707a1 1 0 0 0-.293.707v12a1 1 0 0 0 2 0v-11.586l2.707-2.707a1 1 0 0 0 .293-.707Z" fill="#722ed1" fill-rule="evenodd" data-name="Path 609"/><path d="M784 972.012a3 3 0 1 0-4 2.816v1.77l-2.707 2.707a1 1 0 0 0-.293.707v3a1 1 0 0 0 2 0v-2.586l2.707-2.707a1 1 0 0 0 .293-.707v-2.184a3 3 0 0 0 2-2.816Z" fill="#722ed1" fill-rule="evenodd" data-name="Path 610"/></g></g></svg>